<svg width="71" height="71" viewBox="0 0 71 71" fill="none" xmlns="http://www.w3.org/2000/svg">
    <path d="M0 35.4999C0 15.8938 15.8938 0 35.4999 0C55.1059 0 70.9997 15.8938 70.9997 35.4999C70.9997 55.1059 55.1059 70.9997 35.4999 70.9997C15.8938 70.9997 0 55.1059 0 35.4999Z" fill="white"/>
    <path fill-rule="evenodd" clip-rule="evenodd" d="M8.27683 58.2859C14.7889 66.0579 24.5674 71 35.5001 71C55.1062 71 71 55.1062 71 35.5001C71 24.5674 66.0579 14.7889 58.2859 8.27682C63.4521 14.4426 66.5625 22.3894 66.5625 31.0626C66.5625 50.6687 50.6687 66.5625 31.0626 66.5625C22.3894 66.5625 14.4426 63.4521 8.27683 58.2859Z" fill="#F9F9F9"/>
    <path fill-rule="evenodd" clip-rule="evenodd" d="M8.27683 58.2859C14.7889 66.0579 24.5674 71 35.5001 71C55.1062 71 71 55.1062 71 35.5001C71 24.5674 66.0579 14.7889 58.2859 8.27682C63.4521 14.4426 66.5625 22.3894 66.5625 31.0626C66.5625 50.6687 50.6687 66.5625 31.0626 66.5625C22.3894 66.5625 14.4426 63.4521 8.27683 58.2859Z" fill="black" fill-opacity="0.03"/>
    </svg>
    